<svg xmlns="http://www.w3.org/2000/svg" enable-background="new 0 0 512 512" viewBox="0 0 512 512"><path fill="#b0bfc6" d="M439.7,459.4v38.2H10.9c-6,0-10.9-4.9-10.9-10.9v-27.3C0,385.2,60.2,325,134.4,325h170.9
			C379.5,325,439.7,385.2,439.7,459.4z"/><path fill="#dce5ea" d="M276.2,365c-4.8,27.6-17.4,57.4-32.7,87.9c-7.3,14.8-15.5,29.8-23.6,44.7c-8.1-14.9-16.2-29.9-23.6-44.7
			c-15.3-30.5-27.9-60.3-32.7-88c-2.4-13.9-2.9-27.3-0.6-39.9h113.9C279,337.7,278.6,351,276.2,365z"/><rect width="100.8" height="102.1" x="169.5" y="265" fill="#f4dfd7"/><path fill="#f4dfd7" d="M332.4,194.2c0,10.3-8.3,18.8-18.8,18.8l-1.7,13.1c-6,46.3-45.4,81-92.1,81l0,0c-46.7,0-86.1-34.7-92.1-81
			l-1.7-13.1c-10.4,0-18.8-8.4-18.8-18.8c0-10.4,8.3-18.8,18.8-18.8v-20.3c0-50,37.8-93.6,87.7-96.7c54.6-3.4,99.8,39.8,99.8,93.6
			v23.4C324,175.4,332.4,183.8,332.4,194.2z"/><path fill="#e5cac3" d="M187.8 259.6c-2.2-2.1-2.3-5.5-.2-7.7 2.1-2.2 5.5-2.3 7.7-.2 13.7 13.1 35.2 13.1 48.9 0 2.2-2.1 5.6-2 7.7.2 2.1 2.2 2 5.6-.2 7.7C233.8 276.7 205.7 276.7 187.8 259.6zM262.8 191c-1.4-3.3-6-3.3-7.4 0-1.2 2.8-4.3 4.1-7.1 2.9-2.8-1.2-4.1-4.3-2.9-7.1 5-12.1 22.4-12.2 27.5 0 1.2 2.8-.2 6-2.9 7.1C267.1 195 263.9 193.7 262.8 191zM184.3 191c-1.4-3.3-6-3.3-7.4 0-1.2 2.8-4.3 4.1-7.1 2.9-2.8-1.2-4.1-4.3-2.9-7.1 5-12.1 22.4-12.3 27.5 0 1.2 2.8-.2 6-2.9 7.1C188.6 195 185.4 193.7 184.3 191z"/><path fill="#ea9c96" d="M248.1,473.6l-4.6-19.5l-13.8-58.5H210l-13.7,58.5l-4.3,18c5.2,4.1,22.4,21.4,27.9,25.6
			C222.7,495.5,245.9,473.9,248.1,473.6z"/><path fill="#e2887d" d="M229.7,395.5H210c-6.3-6.3-9.8-14.8-9.8-23.8v-10.7h39.3v10.7C239.5,380.7,236,389.2,229.7,395.5z"/><path fill="#f4f4f4" d="M301.3,328.7c-0.3,0.9-0.7,1.7-1.3,2.5L276.1,365l-13,18.3l-43.3-22.2l36.8-36.8c5.1-5.1,11.9-8.2,19-8.6
			c1.5-0.2,3.1-0.2,4.6,0l5.3,0.5C291.1,320,296.3,324.4,301.3,328.7z"/><path fill="#f4f4f4" d="M219.9,361.1l-43.3,22.2l-13-18.4l-23.9-33.6c-0.6-0.8-1-1.6-1.3-2.5c5-4.4,10.2-8.7,15.7-12.6l5.3-0.5
			c1.5-0.2,3.1-0.2,4.6,0c7.1,0.4,13.9,3.5,19.1,8.6L219.9,361.1z"/><path fill="#d1dfe8" d="M119.1 400.6c7.3-7.5 16-21.1 17.4-30.4-9-6-18.4-9.7-21.2-21.2 14-11.3 20-19.1 41.8-35.1 3.4-2.4 8.1.5 7.1 4.8-3.6 14.5-3.5 30-.7 46.2 7.3 42.5 34.3 92.2 56.3 132.7C178 465.1 137.1 437.7 119.1 400.6zM303.2 370.2c1.4 9.3 10.1 22.9 17.4 30.4-18.1 37.4-59.3 64.8-100.7 97 21.4-39.4 48.9-89.9 56.3-132.6 2.9-16.3 3-31.8-.7-46.3-1-4.3 3.7-7.2 7.1-4.8 16.2 11.3 29.3 25 41.8 35.1C321.6 360.5 312.2 364.2 303.2 370.2z"/><path fill="#bec8cc" d="M124.7,185.1c4.1,0,7.6-2.9,8.5-6.9l5.7-27.4c0.2-3,1.3-6,3.2-8.3c6.5-7.9,10.5-17,12.9-27.3
			c1.8-7.6,8.9-12.8,16.7-11.9c35.7,4.3,67.8,4.3,92.2-4.3c9.2-3.2,18.1,1.6,20.6,11c2.9,10.7,8.3,20.2,16.6,28
			c2.8,2.6,4.4,6.2,4.7,10l2.2,29.1c0.3,4.5,4.1,8,8.6,8l0,0c4.3,0,7.9-3.1,8.6-7.4c11.9-79.3,13.9-120.8-34.4-128.4
			C258.4-15.4,104.2,12,107.3,112.5c0.4,13.8,5.1,46,8,65.3c0.6,4.2,4.3,7.3,8.5,7.3L124.7,185.1L124.7,185.1z"/><path fill="#f7cf6d" d="M512,395.3v92.9c0,5.2-4.2,9.5-9.5,9.5H356.3c-5.2,0-9.5-4.2-9.5-9.5v-92.9c0-5.2,4.2-9.5,9.5-9.5h146.2
			C507.8,385.8,512,390,512,395.3z"/><path fill="#f7cf6d" d="M512,395.2v10.3c0,5.3-3.7,9.7-8.9,11.1c-11.8,3.1-21.9,12.1-25.3,23.5c-1.5,4.9-5.8,8.5-10.9,8.5H392
			c-5.2,0-9.5-3.5-10.9-8.5c-3.4-11.4-13.5-20.4-25.3-23.5c-5.1-1.3-8.9-5.7-8.9-11.1v-10.3c0-5.2,4.3-9.5,9.5-9.5h146.2
			C507.7,385.8,512,390,512,395.2z"/><path fill="#f7c94b" d="M457.6,391.2h-56.4c-3,0-5.4-2.4-5.4-5.4v-13c0-11,9-20,20-20h27.4c11,0,20,9,20,20v13
			C463.1,388.8,460.6,391.2,457.6,391.2z M406.7,380.3h45.5v-7.5c0-5-4.1-9.1-9.1-9.1h-27.4c-5,0-9.1,4.1-9.1,9.1V380.3z"/><path fill="#dce5ea" d="M464.5,454h-70.2c-7,0-13.1-5-15.2-12.4c-2.6-9.3-10.5-17.1-20.2-19.8c-7.2-2-12.2-8.7-12.2-16.3v-10.3
			c0-8.2,6.3-14.9,14-14.9H498c7.7,0,14,6.7,14,14.9v10.3c0,7.6-5,14.3-12.2,16.3c-9.6,2.7-17.5,10.4-20.2,19.8
			C477.6,449,471.5,454,464.5,454z M360.9,391.2c-2,0-3.8,1.8-3.8,4v10.3c0,2.7,1.8,5,4.5,5.8c13,3.6,23.7,14.3,27.3,27.2
			c0.8,2.7,2.9,4.6,5.4,4.6h70.2c2.4,0,4.6-1.9,5.4-4.6c3.6-12.9,14.4-23.5,27.3-27.2c2.7-0.8,4.5-3.1,4.5-5.8v-10.3
			c0-2.2-1.7-4-3.8-4H360.9z"/><path fill="#dce5ea" d="M439.7,439.3v15.9c0,5.7-4.6,10.3-10.3,10.3l0,0c-5.7,0-10.3-4.6-10.3-10.3v-15.9c0-2.3,1.8-4.1,4.1-4.1h12.3
			C437.9,435.2,439.7,437,439.7,439.3z"/></svg>