<svg xmlns="http://www.w3.org/2000/svg" enable-background="new 0 0 47.5 47.5" viewBox="0 0 47.5 47.5"><defs><clipPath id="a" clipPathUnits="userSpaceOnUse"><path d="M 5,37 C 2.791,37 1,35.209 1,33 L 1,33 1,5 C 1,2.791 2.791,1 5,1 l 0,0 28,0 c 2.209,0 4,1.791 4,4 l 0,0 0,28 c 0,2.209 -1.791,4 -4,4 l 0,0 -28,0 z"/></clipPath></defs><g clip-path="url(#a)" transform="matrix(1.25 0 0 -1.25 0 47.5)"><path fill="#f4900c" d="M 38,0 0,0 0,38 38,38 38,0 Z"/><path fill="#485359" d="m 0,0 0,29 4,4 2,0 4,-4 L 10,0 0,0 Z" transform="translate(11 1)"/><path fill="#485359" d="m 0,0 c 0,1 -1,1 -1,1 l -7,0 c 0,0 -1,0 -1,-1 l 0,-25 9,0 0,25 z" transform="translate(34 26)"/><path fill="#292f33" d="m 0,0 c 0,1 -1,1 -1,1 l -8,0 c -1,0 -1,-1 -1,-1 l 0,-19 10,0 0,19 z" transform="translate(29 20)"/><path fill="#292f33" d="m 0,0 c 0,0 0,1 -1,1 l -5,0 0,-23 6,0 0,22 z" transform="translate(7 23)"/><path fill="#292f33" d="m 0,0 c 0,0 0,1 -1,1 l -6,0 c 0,0 -1,10e-4 -1,-1 l 0,-16 8,0 0,16 z" transform="translate(13 17)"/><path fill="#292f33" d="M 0,0 C 0,0 0,1 1,1 L 5,1 5,-10 0,-10 0,0 Z" transform="translate(32 11)"/><path fill="#ffcc4d" d="M11 6L9 6 9 8 11 8 11 6zM11 14l-2 0 0 2 2 0 0-2zM9 10l-2 0 0 2 2 0 0-2zM19 26l-2 0 0 2 2 0 0-2zM19 22l-2 0 0 2 2 0 0-2zM17 18l-2 0 0 2 2 0 0-2zM27 17l-2 0 0 2 2 0 0-2zM25 13l-2 0 0 2 2 0 0-2zM23 7l-2 0 0 2 2 0 0-2zM32 23l-2 0 0 2 2 0 0-2zM32 19l-2 0 0 2 2 0 0-2z"/></g></svg>