<svg xmlns="http://www.w3.org/2000/svg" data-name="Layer 1" viewBox="0 0 512 512"><path fill="#57aafe" d="M447.55957,501.999V340.31989a60,60,0,0,0-38.01-55.82508l-97.01835-38.21639a20,20,0,0,1-12.67-18.60836V194.7627H212.13892v32.90736a20,20,0,0,1-12.67,18.60836l-97.01846,38.21639a60,60,0,0,0-38.01,55.8251V501.999a10,10,0,0,0,10,10H437.55957A10,10,0,0,0,447.55957,501.999Z"/><path fill="#f9beac" d="M312.53121,246.27842a20,20,0,0,1-12.67-18.60836V194.7627H212.13892v32.90736a20,20,0,0,1-12.67,18.60836l56.53115,28Z"/><path fill="#e58a7b" d="M299.86121,194.7627H212.13892v29.52246A100.85454,100.85454,0,0,0,228.7074,237.6958a63.128,63.128,0,0,0,68.58514,0l.00043-.00049c1.34448-.87011,2.65686-1.78125,3.95434-2.71093a19.96792,19.96792,0,0,1-1.3861-7.31446Z"/><path fill="#f9beac" d="M376.88,463.5152h70.67957a0,0,0,0,1,0,0V501.999a10,10,0,0,1-10,10H376.88a0,0,0,0,1,0,0V463.5152A0,0,0,0,1,376.88,463.5152Z"/><path fill="#416bd0" d="M376.87988,511.999a3.50049,3.50049,0,0,1-3.5-3.5V436.85645a3.5,3.5,0,0,1,7,0V508.499A3.5005,3.5005,0,0,1,376.87988,511.999Z"/><path fill="#ff7b4f" d="M324.70679,251.07471l-12.17554-4.79639a19.96262,19.96262,0,0,1-7.51306-5.21338l-.00011.00011a69.322,69.322,0,0,1-98.0361-.00006l0,0a19.96219,19.96219,0,0,1-7.51294,5.21338l-12.17578,4.79639.00007.00007a97.16616,97.16616,0,0,0,137.41344,0Z"/><path fill="#f9beac" d="M64.44043,463.5152H135.12a0,0,0,0,1,0,0V511.999a0,0,0,0,1,0,0H74.44043a10,10,0,0,1-10-10V463.5152A0,0,0,0,1,64.44043,463.5152Z"/><rect width="70.68" height="20.968" x="64.44" y="449.515" fill="#ff7b4f"/><rect width="63.68" height="20.968" x="383.88" y="449.515" fill="#ff7b4f"/><path fill="#f9beac" d="M327.57336,180.20264A100.8781,100.8781,0,0,1,290.293,223.69531l-.00043.00049a63.128,63.128,0,0,1-68.58514,0,100.88022,100.88022,0,0,1-37.28064-43.49268l-.00012-.00048a100.87854,100.87854,0,0,1-8.79895-41.20508V101.499a211.64548,211.64548,0,0,0,78.51306-13.8999A210.46609,210.46609,0,0,0,305,59.499a68.35471,68.35471,0,0,0,31.37231,42v37.49854A100.87951,100.87951,0,0,1,327.57336,180.20264Z"/><path fill="#343c4a" d="M336.37231 139.07382h-4a10 10 0 0 1-10-10V101.4992h14zM175.62766 139.07382h4a10 10 0 0 0 10-10V101.4992h-14z"/><path fill="#e58a7b" d="M256.002 204.68115a36.94506 36.94506 0 0 1-15.7207-3.53662 3.50031 3.50031 0 0 1 2.99805-6.32617 30.45324 30.45324 0 0 0 12.81152 2.86279 29.89038 29.89038 0 0 0 12.62988-2.86279 3.50031 3.50031 0 0 1 2.998 6.32617 36.9517 36.9517 0 0 1-15.60645 3.53662zM268.70444 158.52574v7.11184a12.7012 12.7012 0 0 1-12.7012 12.7012h-.00648a12.7012 12.7012 0 0 1-12.7012-12.7012v-7.11184a3 3 0 0 1 3-3h19.40888A3 3 0 0 1 268.70444 158.52574z"/><path fill="#e58a7b" d="M152.23776,101.4992h.00008A23.38985,23.38985,0,0,1,175.62769,124.889v.00006a17.65977,17.65977,0,0,1-17.65977,17.65977h-5.73016a0,0,0,0,1,0,0V101.4992A0,0,0,0,1,152.23776,101.4992Z" transform="rotate(180 163.933 122.024)"/><path fill="#e58a7b" d="M336.37239,142.54887h0V101.4992h5.7301a17.65977,17.65977,0,0,1,17.65977,17.65973v0A23.38984,23.38984,0,0,1,336.37239,142.54887Z"/><path fill="#343c4a" d="M279.18652 118.80029a3.50051 3.50051 0 0 1-1.33007-6.73877 34.20811 34.20811 0 0 1 26.01757-.001 3.50014 3.50014 0 0 1-2.65429 6.47754 27.2103 27.2103 0 0 0-20.70508-.001A3.48463 3.48463 0 0 1 279.18652 118.80029zM290.86621 136.50684a3.50017 3.50017 0 0 1-3.5-3.5v-7.43262a3.5 3.5 0 1 1 7 0v7.43262A3.50017 3.50017 0 0 1 290.86621 136.50684zM209.4541 118.80029a3.50051 3.50051 0 0 1-1.33008-6.73877 34.20813 34.20813 0 0 1 26.01758-.001 3.50014 3.50014 0 0 1-2.6543 6.47754 27.21028 27.21028 0 0 0-20.70507-.001A3.48463 3.48463 0 0 1 209.4541 118.80029zM221.13379 136.50684a3.50017 3.50017 0 0 1-3.5-3.5v-7.43262a3.5 3.5 0 0 1 7 0v7.43262A3.50017 3.50017 0 0 1 221.13379 136.50684z"/><path fill="#f24f2a" d="M114.82226,74.69768h74.82421a0,0,0,0,1,0,0V101.4992a0,0,0,0,1,0,0H95.47655a0,0,0,0,1,0,0V94.04339A19.34571,19.34571,0,0,1,114.82226,74.69768Z"/><path fill="#ff7b4f" d="M255.99992,3.499h.00016a80.37226,80.37226,0,0,1,80.37226,80.37226V101.4992a0,0,0,0,1,0,0H175.62766a0,0,0,0,1,0,0V83.87128A80.37226,80.37226,0,0,1,255.99992,3.499Z"/><path fill="#343c4a" d="M231.7241,82.52805h48.5518a3,3,0,0,1,3,3V101.4992a0,0,0,0,1,0,0H228.7241a0,0,0,0,1,0,0V85.52805A3,3,0,0,1,231.7241,82.52805Z"/><path fill="#ffd597" d="M508.10082,234.1737a1.99955,1.99955,0,0,0-1.96535-3.16431,77.70109,77.70109,0,0,0-37.38255,18.37494c-25.52521,23.02589-25.65451,55.06748-25.58945,60.31246l30.46565,17.58936a45.8011,45.8011,0,0,0,18.16945-12.28193c2.34256-2.60723,9.945-11.68366,11.28381-24.87421,1.322-13.02437-4.816-16.72772-4.96293-28.71474C498.039,254.84127,499.75782,245.559,508.10082,234.1737Z"/><path fill="#343c4a" d="M350.30507,506.69446l0,0a13.42188,13.42188,0,0,1-5.95993-16.09418,648.80842,648.80842,0,0,1,98.81835-180.90347l31.34563,18.09742a660.33854,660.33854,0,0,1-48.23258,94.67238A660.31777,660.31777,0,0,1,367.25034,503.778,13.42383,13.42383,0,0,1,350.30507,506.69446Z"/><path fill="#416bd0" d="M135.12012,511.999a3.50047,3.50047,0,0,1-3.5-3.5V420.27539a3.5,3.5,0,0,1,7,0V508.499A3.50049,3.50049,0,0,1,135.12012,511.999Z"/></svg>