<svg xmlns="http://www.w3.org/2000/svg" data-name="Layer 1" viewBox="0 0 512 512"><path fill="#343c4a" d="M206.62766,3.499h98.74468a31,31,0,0,1,31,31V101.4992a0,0,0,0,1,0,0H175.62766a0,0,0,0,1,0,0V34.499a31,31,0,0,1,31-31Z"/><path fill="#243047" d="M290.50391,101.499h45.8684v-67a30.856,30.856,0,0,0-3.55261-14.40771A88.17163,88.17163,0,0,1,319.30737,44.9375,87.812,87.812,0,0,1,305,59.499Z"/><path fill="#8fd17a" d="M447.55957,501.999V347.31989a60,60,0,0,0-38.01-55.82508l-97.01835-38.21639a20,20,0,0,1-12.67-18.60836V215.7627H212.13892v18.90736a20,20,0,0,1-12.67,18.60836l-97.01846,38.21639a60,60,0,0,0-38.01,55.8251V501.999a10,10,0,0,0,10,10H437.55957A10,10,0,0,0,447.55957,501.999Z"/><path fill="#cc938b" d="M194.27905,255.32275a67.49771,67.49771,0,0,0,123.442,0h.00006l-5.18988-2.04443a19.99959,19.99959,0,0,1-12.67-18.6084V215.7627H212.13892v18.90722a19.99959,19.99959,0,0,1-12.67,18.6084l-5.18994,2.04443Z"/><path fill="#a56362" d="M303.04382,245.47168a19.962,19.962,0,0,1-3.18261-10.80176V215.7627H212.13892v7.73974A100.87212,100.87212,0,0,0,235.7074,244.6958,63.12181,63.12181,0,0,0,303.04382,245.47168Z"/><path fill="#cc938b" d="M327.57336 180.20264A100.8781 100.8781 0 0 1 290.293 223.69531l-.00043.00049a63.128 63.128 0 0 1-68.58514 0 100.88022 100.88022 0 0 1-37.28064-43.49268l-.00012-.00048a100.87854 100.87854 0 0 1-8.79895-41.20508V101.499a211.64548 211.64548 0 0 0 78.51306-13.8999A210.46609 210.46609 0 0 0 305 59.499a68.35471 68.35471 0 0 0 31.37231 42v37.49854A100.87951 100.87951 0 0 1 327.57336 180.20264zM135.12 511.999H74.44043a10 10 0 0 1-10-10V453.98354H135.12z"/><path fill="#a56362" d="M256.00146 204.68115a36.93963 36.93963 0 0 1-15.72021-3.53662 3.50021 3.50021 0 0 1 2.99756-6.32617 29.89035 29.89035 0 0 0 12.72217 2.86279h.08935a29.90713 29.90713 0 0 0 12.63086-2.86279 3.5001 3.5001 0 0 1 2.99707 6.32617 36.955 36.955 0 0 1-15.60644 3.53662zM268.70444 159.48675v6.15083a12.7012 12.7012 0 0 1-12.7012 12.7012h-.00648a12.7012 12.7012 0 0 1-12.7012-12.7012v-6.15083a3 3 0 0 1 3-3h19.40888A3 3 0 0 1 268.70444 159.48675z"/><path fill="#a56362" d="M152.23776,97.42914h.00008A23.38985,23.38985,0,0,1,175.62769,120.819v.00006a17.65977,17.65977,0,0,1-17.65977,17.65977h-5.73016a0,0,0,0,1,0,0V97.42914A0,0,0,0,1,152.23776,97.42914Z" transform="rotate(180 163.933 117.954)"/><path fill="#596381" d="M336.37231 101.499c-.92871-.55273-1.96875-1.2041-3.08667-1.95214L302.79658 126.039a3.49992 3.49992 0 1 0 4.59863 5.27734l28.9771-25.17471zM175.62769 101.499v4.36817l27.20874 20.31836a3.49991 3.49991 0 0 0 4.18847-5.6084l-25.55176-19.08106C179.42792 101.52441 177.47388 101.52393 175.62769 101.499zM276.88232 134.82031H235.11768a3.5 3.5 0 0 1 0-7h41.76464a3.5 3.5 0 0 1 0 7z"/><path fill="#709653" d="M135.12012,511.999a3.50017,3.50017,0,0,1-3.5-3.5V420.27539a3.5,3.5,0,0,1,7,0V508.499A3.50017,3.50017,0,0,1,135.12012,511.999Z"/><path fill="#a56362" d="M336.37239,138.47881h0V97.42914h5.7301a17.65977,17.65977,0,0,1,17.65977,17.65972v0A23.38985,23.38985,0,0,1,336.37239,138.47881Z"/><rect width="191.322" height="191.322" x="317.178" y="320.677" fill="#f2f2f2" rx="15"/><path fill="#343c4a" d="M332.17777,320.67679H493.5a15,15,0,0,1,15,15v20a0,0,0,0,1,0,0H317.17777a0,0,0,0,1,0,0v-20A15,15,0,0,1,332.17777,320.67679Z"/><circle cx="337.517" cy="338.553" r="3.5" fill="#f96263"/><circle cx="351.517" cy="338.553" r="3.5" fill="#ffbc5b"/><circle cx="365.517" cy="338.553" r="3.5" fill="#8fd17a"/><path fill="#343c4a" d="M378.68555 460.03613a3.48769 3.48769 0 0 1-2.12306-.71875l-25.54-19.5205a7.50042 7.50042 0 0 1 .00049-11.918l25.53954-19.52051a3.50044 3.50044 0 0 1 4.251 5.5625l-25.54 19.52051a.499.499 0 0 0-.00049.793l25.54053 19.5205a3.50042 3.50042 0 0 1-2.12793 6.28125zM446.99219 460.03613a3.50042 3.50042 0 0 1-2.12793-6.28125l25.54-19.5205a.499.499 0 0 0 .00049-.793L444.86426 413.9209a3.50043 3.50043 0 0 1 4.251-5.5625l25.54 19.52051a7.50041 7.50041 0 0 1-.00048 11.918l-25.53956 19.5205A3.48759 3.48759 0 0 1 446.99219 460.03613zM398.45264 465.24512a3.5012 3.5012 0 0 1-3.10791-5.1045l28.7666-55.8125a3.4998 3.4998 0 1 1 6.22168 3.207l-28.7666 55.8125A3.5 3.5 0 0 1 398.45264 465.24512z"/><rect width="42" height="27" x="203.5" y="117.821" fill="#cce3fd" rx="7"/><rect width="42" height="27" x="266.5" y="117.821" fill="#cce3fd" rx="7"/></svg>