<svg xmlns="http://www.w3.org/2000/svg" width="512" height="512" fill-rule="evenodd" clip-rule="evenodd" image-rendering="optimizeQuality" shape-rendering="geometricPrecision" text-rendering="geometricPrecision" viewBox="0 0 512 512"><rect width="512" height="512" fill="none"/><polygon fill="#2a5297" points="256 106 321 143 386 181 386 256 386 331 321 369 256 406 191 369 126 331 126 256 126 181 191 143"/><polygon fill="#19377a" points="256 406 191 369 126 331 126 256 126 181 191 143 256 106"/><polygon fill="#2a5297" points="256 131 310 162 364 193 364 256 364 319 310 350 256 381 202 350 148 319 148 256 148 193 202 162"/><path fill="#fefefe" d="M237 228l-13 0 -1 28 14 0 0 70 28 0 0 -70 21 0 3 -28 -23 0c0,-25 2,-16 22,-18l0 -24c-5,0 -17,0 -23,0 -7,0 -13,2 -17,6 -11,8 -11,20 -11,36z"/></svg>