<svg xmlns="http://www.w3.org/2000/svg" viewBox="0 0 48 48"><g data-name="object audience network"><path fill="#425b72" d="M23 42.55v-8a1 1 0 0 1 2 0v8A1 1 0 0 1 23 42.55zM31.27 17.73a1 1 0 0 1-.71-1.7L37 9.6A1 1 0 0 1 38.4 11C31.5 17.91 31.85 17.73 31.27 17.73zM23 13.52V5a1 1 0 0 1 2 0v8.52A1 1 0 0 1 23 13.52zM16.58 17.58c-.58 0 0 .39-9-8.54A1 1 0 0 1 9 7.62l8.25 8.25A1 1 0 0 1 16.58 17.58zM13.17 25H3.79a1 1 0 0 1 0-2h9.38A1 1 0 0 1 13.17 25zM9.78 39.22a1 1 0 0 1-.71-1.7l6.41-6.41a1 1 0 0 1 1.41 1.41C10 39.4 10.37 39.22 9.78 39.22zM44.71 25H34.94a1 1 0 0 1 0-2h9.77A1 1 0 0 1 44.71 25zM38.22 39.22c-.59 0-.23.18-7.27-6.85A1 1 0 0 1 32.37 31l6.56 6.57A1 1 0 0 1 38.22 39.22z"/><path fill="#dad7e5" d="M36,24A12,12,0,0,1,24,36C12.62,36,7.68,21.61,16.57,14.57A12,12,0,0,1,36,24Z"/><path fill="#edebf2" d="M36,24a12,12,0,0,1-2.57,7.43A12,12,0,0,1,16.57,14.57,12,12,0,0,1,36,24Z"/><circle cx="45" cy="24" r="2" fill="#6fabe6"/><path fill="#6fabe6" d="M5,24a2,2,0,1,1-2.82-1.82A2,2,0,0,1,5,24Z"/><path fill="#82bcf4" d="M4.82 24.82a2 2 0 0 1-2.64-2.64A2 2 0 0 1 4.82 24.82zM46.82 24.82a2 2 0 0 1-2.64-2.64A2 2 0 0 1 46.82 24.82z"/><path fill="#6fabe6" d="M27,44a3,3,0,1,1-5-2.24A3,3,0,0,1,27,44Z"/><path fill="#82bcf4" d="M27,44a1,1,0,0,1,0,.24A3,3,0,0,1,22,42a1,1,0,0,1,0-.24A3,3,0,0,1,27,44Z"/><circle cx="24" cy="4" r="3" fill="#6fabe6"/><circle cx="39" cy="39" r="3" fill="#6fabe6"/><circle cx="7" cy="7" r="3" fill="#6fabe6"/><path fill="#6fabe6" d="M12,40a4,4,0,1,1-5.64-3.64A4,4,0,0,1,12,40Z"/><path fill="#82bcf4" d="M11.64,41.64a4,4,0,0,1-5.28-5.28A4,4,0,0,1,11.64,41.64Z"/><path fill="#6fabe6" d="M45,8a5,5,0,1,1-7.39-4.39A5,5,0,0,1,45,8Z"/><path fill="#82bcf4" d="M44.39 10.39a5 5 0 0 1-6.78-6.78A5 5 0 0 1 44.39 10.39zM27 4a1 1 0 0 1 0 .24A3 3 0 0 1 22 2a1 1 0 0 1 0-.24A3 3 0 0 1 27 4zM10 7a1 1 0 0 1 0 .24A3 3 0 0 1 5 5a1 1 0 0 1 0-.24A3 3 0 0 1 10 7zM42 39a1 1 0 0 1 0 .24A3 3 0 0 1 37 37a1 1 0 0 1 0-.24A3 3 0 0 1 42 39z"/><path fill="#db5669" d="M32.89,32.07a12,12,0,0,1-17.78,0A4,4,0,0,1,19,29H29A4,4,0,0,1,32.89,32.07Z"/><path fill="#f6ccaf" d="M28,22v3a4,4,0,0,1-8,0V22Z"/><path fill="#ffdec7" d="M28,22v3a4,4,0,0,1-3,3.87A4,4,0,0,1,22,25V22Z"/><path fill="#a87e6b" d="M28,20v2H20c0-2.35.16-1.68-1-4h7A2,2,0,0,1,28,20Z"/><path fill="#be927c" d="M28,20v1H22c0-1.2.07-.87-1-3h5A2,2,0,0,1,28,20Z"/><path fill="#f26674" d="M32.83,31.87a12,12,0,0,1-16.06-2.19C18.12,28.77,18.22,29,29,29A4,4,0,0,1,32.83,31.87Z"/></g></svg>