<svg xmlns="http://www.w3.org/2000/svg" enable-background="new 0 0 64 64" viewBox="0 0 64 64"><path fill="#ff9e1f" d="M59,36c0,2.2-0.6,4.3-1.7,6.1c-0.4,0.6-0.8,1.2-1.2,1.7c-1,1.2-2.2,2.1-3.6,2.8c-0.6,0.3-1.2,0.6-1.9,0.8
			C49.5,47.8,48.3,48,47,48c-6.6,0-12-5.4-12-12c0-1.3,0.2-2.5,0.6-3.7c0.2-0.7,0.5-1.3,0.8-1.9c2-3.8,6-6.5,10.7-6.5
			C53.6,24,59,29.4,59,36z" opacity=".3"/><path fill="#ff9e1f" d="M35,42h-6c-0.4,0-0.8-0.2-0.9-0.6l-2-5c-0.1-0.3-0.1-0.7,0.1-0.9c0.2-0.3,0.5-0.4,0.8-0.4h10
			c0.3,0,0.6,0.2,0.8,0.4c0.2,0.3,0.2,0.6,0.1,0.9l-2,5C35.8,41.8,35.4,42,35,42z M29.7,40h4.6l1.2-3h-7L29.7,40z"/><path d="M53,60H11c-0.6,0-1-0.4-1-1V48.9C10,41.2,16.2,35,23.9,35h16.2C47.8,35,54,41.2,54,48.9V59C54,59.6,53.6,60,53,60z M12,58
			h40v-9.1C52,42.3,46.7,37,40.1,37H23.9C17.3,37,12,42.3,12,48.9V58z"/><path d="M32,37c-0.1,0-0.2,0-0.3,0c-2.4-0.7-4.6-1.7-6.6-3.2c-4.5-3.4-7.1-8.5-7.1-14V9.6c0-0.4,0.3-0.8,0.7-0.9l13-4.6
			c0.2-0.1,0.5-0.1,0.7,0l13,4.6C45.7,8.8,46,9.2,46,9.6v10.1c0,8-5.6,15.1-13.7,17.3C32.2,37,32.1,37,32,37z M20,10.3v9.4
			c0,4.9,2.3,9.4,6.3,12.4c1.7,1.3,3.6,2.2,5.7,2.8c7.1-2,12-8.3,12-15.3v-9.4L32,6.1L20,10.3z"/><path fill="#ff9e1f" d="M31 25c-.3 0-.5-.1-.7-.3l-4-4c-.4-.4-.4-1 0-1.4s1-.4 1.4 0l3.3 3.3 7.3-7.3c.4-.4 1-.4 1.4 0s.4 1 0 1.4l-8 8C31.5 24.9 31.3 25 31 25zM32 60c-.2 0-.4-.1-.6-.2l-5-4c-.3-.2-.4-.6-.4-.9l2-14c.1-.5.5-.9 1-.9h6c.5 0 .9.4 1 .9l2 14c0 .4-.1.7-.4.9l-5 4C32.4 59.9 32.2 60 32 60zM28.1 54.6l3.9 3.1 4-3.1L34.1 42h-4.3L28.1 54.6z"/></svg>