<svg xmlns="http://www.w3.org/2000/svg" viewBox="0 0 24 24"><path fill="#303C42" d="M21 16.5c-.976 0-3 .544-4.026.838-.136-1.434-1.974-1.942-3.874-2.328-.868-.176-1.513-.487-2.137-.788-.77-.371-1.496-.722-2.463-.722-1.107 0-2.116.226-2.685.383a1.496 1.496 0 0 0-1.145-1.059L.598 12.01A.502.502 0 0 0 0 12.5v8a.5.5 0 0 0 .5.5h3.133c.617 0 1.143-.393 1.37-.944C6.123 20.59 11.3 23 13.5 23c1.94 0 5.933-1.963 8.574-3.262.689-.338 1.258-.618 1.627-.78A.5.5 0 0 0 24 18.5c0-1.178-1.233-2-3-2z"/><path fill="#FFE082" d="M21.633 18.84C19.229 20.023 15.207 22 13.5 22c-1.818 0-6.595-2.13-8.281-2.95l-.006-.001.588-4.12c.365-.115 1.478-.429 2.699-.429.738 0 1.308.275 2.03.623.647.312 1.381.666 2.37.867 2.173.44 3.1.892 3.1 1.51a.297.297 0 0 1-.132.268c-.318.238-1.56.637-6.225-.747a.5.5 0 1 0-.286.958c2.304.683 4.065 1.023 5.313 1.023.813 0 1.41-.144 1.796-.433a1.09 1.09 0 0 1 .181-.091c.884-.272 3.39-.978 4.353-.978.815 0 1.674.248 1.926.713-.349.164-.79.38-1.293.628z"/><linearGradient id="a" x1="4.639" x2="11.499" y1="16.183" y2="23.043" gradientUnits="userSpaceOnUse"><stop offset="0" stop-opacity=".1"/><stop offset="1" stop-opacity="0"/></linearGradient><path fill="url(#a)" d="M5.786 15.037l-.573 4.012.006.001c1.466.713 5.263 2.414 7.427 2.847l-6.86-6.86z"/><path fill="#303C42" d="M23.5 9h-.525a7.502 7.502 0 0 0-6.49-6.928c.002-.025.015-.046.015-.072 0-.551-.449-1-1-1s-1 .449-1 1c0 .026.013.047.015.072A7.502 7.502 0 0 0 8.025 9H7.5a.5.5 0 0 0-.5.5v.5c0 1.103.897 2 2 2h13c1.103 0 2-.897 2-2v-.5a.5.5 0 0 0-.5-.5z"/><path fill="#F2F2F2" d="M15.5 3c3.415 0 6.218 2.65 6.475 6H9.025c.257-3.35 3.06-6 6.475-6z"/><path fill="#FFF" d="M16.975 4.5c1.43 0 2.751.47 3.825 1.257A6.481 6.481 0 0 0 15.5 3c-3.415 0-6.218 2.65-6.475 6h1.778c.846-2.607 3.287-4.5 6.172-4.5z" opacity=".5"/><path fill="#F2F2F2" d="M22 11H9c-.551 0-1-.449-1-1h15c0 .551-.449 1-1 1z"/><path d="M21.846 10a.987.987 0 0 1-.846.5H8.154c.174.293.48.5.846.5h13c.551 0 1-.449 1-1h-1.154z" opacity=".1"/><path fill="#29B6F6" d="M3.633 20H1v-6.89l3.475.695a.5.5 0 0 1 .396.56l-.743 5.206a.503.503 0 0 1-.495.429z"/><path d="M1 16.5V20h2.633c.247 0 .46-.185.495-.43l.438-3.07H1z" opacity=".1"/><linearGradient id="b" x1="1.971" x2="24.067" y1="8.163" y2="18.467" gradientUnits="userSpaceOnUse"><stop offset="0" stop-color="#FFF" stop-opacity=".2"/><stop offset="1" stop-color="#FFF" stop-opacity="0"/></linearGradient><path fill="url(#b)" d="M21 16.5c-.976 0-3 .544-4.026.838-.136-1.434-1.974-1.942-3.874-2.328-.868-.176-1.513-.487-2.137-.788-.77-.371-1.496-.722-2.463-.722-1.107 0-2.116.226-2.685.383a1.496 1.496 0 0 0-1.145-1.059L.598 12.01A.502.502 0 0 0 0 12.5v8a.5.5 0 0 0 .5.5h3.133c.617 0 1.143-.393 1.37-.944C6.123 20.59 11.3 23 13.5 23c1.94 0 5.933-1.963 8.574-3.262.689-.338 1.258-.618 1.627-.78A.5.5 0 0 0 24 18.5c0-1.178-1.233-2-3-2zM23.5 9h-.525a7.502 7.502 0 0 0-6.49-6.928c.002-.025.015-.046.015-.072 0-.551-.449-1-1-1s-1 .449-1 1c0 .026.013.047.015.072A7.502 7.502 0 0 0 8.025 9H7.5a.5.5 0 0 0-.5.5v.5c0 1.103.897 2 2 2h13c1.103 0 2-.897 2-2v-.5a.5.5 0 0 0-.5-.5z"/></svg>